<?xml version="1.0" encoding="UTF-8" standalone="no"?>
<svg
   xmlns:dc="http://purl.org/dc/elements/1.1/"
   xmlns:cc="http://creativecommons.org/ns#"
   xmlns:rdf="http://www.w3.org/1999/02/22-rdf-syntax-ns#"
   xmlns:svg="http://www.w3.org/2000/svg"
   xmlns="http://www.w3.org/2000/svg"
   xmlns:sodipodi="http://sodipodi.sourceforge.net/DTD/sodipodi-0.dtd"
   xmlns:inkscape="http://www.inkscape.org/namespaces/inkscape"
   viewBox="0 0 313 228"
   fill-rule="evenodd"
   clip-rule="evenodd"
   stroke-linejoin="round"
   stroke-miterlimit="1.414"
   version="1.1"
   id="svg4170"
   sodipodi:docname="logo-stacked-light.svg"
   inkscape:version="0.92.2 (5c3e80d, 2017-08-06)">
  <metadata
     id="metadata4176">
    <rdf:RDF>
      <cc:Work
         rdf:about="">
        <dc:format>image/svg+xml</dc:format>
        <dc:type
           rdf:resource="http://purl.org/dc/dcmitype/StillImage" />
      </cc:Work>
    </rdf:RDF>
  </metadata>
  <defs
     id="defs4174" />
  <sodipodi:namedview
     pagecolor="#ffffff"
     bordercolor="#666666"
     borderopacity="1"
     objecttolerance="10"
     gridtolerance="10"
     guidetolerance="10"
     inkscape:pageopacity="0"
     inkscape:pageshadow="2"
     inkscape:window-width="2560"
     inkscape:window-height="1377"
     id="namedview4172"
     showgrid="false"
     showguides="false"
     inkscape:zoom="1.8732127"
     inkscape:cx="157.80921"
     inkscape:cy="105.21866"
     inkscape:window-x="1912"
     inkscape:window-y="-8"
     inkscape:window-maximized="1"
     inkscape:current-layer="svg4170" />
  <path
     fill="none"
     d="M.108.03h312.876v227.727H.108z"
     id="path4095" />
  <path
     d="m 67.4545,227.75 h -7.396 l 10.449,-46.56 h 7.396 z m -13.123,0 h -7.396 l 10.449,-46.56 h 7.396 z m 136.898,-7.292 c -1.9037,-0.37748 -3.75272,-0.99158 -5.504,-1.828 v -6.807 c 3.557,1.877 7.465,2.816 11.723,2.816 1.653,0 2.865,-0.28 3.635,-0.84 0.77,-0.561 1.156,-1.304 1.156,-2.228 0,-0.925 -0.344,-1.618 -1.03,-2.08 -0.686,-0.462 -1.912,-0.932 -3.677,-1.408 l -2.857,-0.798 c -1.681,-0.476 -3.138,-1.03 -4.37,-1.66 -1.233,-0.63 -2.283,-1.576 -3.152,-2.837 -0.869,-1.26 -1.303,-2.885 -1.303,-4.874 0,-3.278 1.002,-5.771 3.005,-7.48 2.002,-1.71 4.825,-2.563 8.467,-2.563 2.186,0 4.104,0.196 5.757,0.588 1.653,0.393 3.348,0.994 5.085,1.807 v 6.555 c -3.194,-1.709 -6.807,-2.563 -10.842,-2.563 -1.484,0 -2.521,0.252 -3.11,0.756 -0.588,0.504 -0.882,1.233 -0.882,2.186 0,0.644 0.14,1.155 0.42,1.533 0.28,0.378 0.715,0.694 1.303,0.946 0.588,0.252 1.471,0.546 2.648,0.882 l 2.9,0.798 c 1.791,0.505 3.333,1.093 4.621,1.766 1.289,0.672 2.36,1.666 3.215,2.983 0.854,1.316 1.282,3.012 1.282,5.085 -0.028,3.053 -1.128,5.455 -3.3,7.206 -2.17,1.752 -5.161,2.627 -8.97,2.627 -2.242,0 -4.315,-0.19 -6.22,-0.568 z m -93.132,0.232 h -9.58 l -7.817,-32.23 h 7.354 l 5.337,23.447 5.967,-23.448 h 8.825 l 6.008,23.448 5.295,-23.448 h 7.354 l -7.774,32.23 h -9.581 l -5.715,-21.64 -5.673,21.64 z m 45.78,-0.379 h -13.322 V 188.46 h 13.322 c 4.09,0 6.996,0.729 8.719,2.185 1.723,1.457 2.584,3.572 2.584,6.345 0,1.737 -0.35,3.194 -1.05,4.37 -0.7,1.177 -1.835,2.102 -3.404,2.774 1.793,0.588 3.194,1.5 4.203,2.732 1.007,1.232 1.512,2.745 1.512,4.538 0,2.997 -0.967,5.231 -2.9,6.702 -1.932,1.471 -5.154,2.206 -9.664,2.206 z m 30.862,0 h -7.565 v -25.38 h -8.698 v -6.472 h 24.961 v 6.471 h -8.698 z m 53.025,0 h -7.564 v -25.38 h -8.698 v -6.472 h 24.96 v 6.471 h -8.698 z m 19.558,0 h -7.564 V 188.46 h 12.901 c 8.096,0 12.144,3.404 12.144,10.211 0,4.847 -2.116,7.956 -6.345,9.33 l 7.606,12.311 h -8.405 l -6.807,-11.514 h -3.53 v 11.514 z"
     id="path4097"
     inkscape:connector-curvature="0"
     style="fill:#ffffff"
     sodipodi:nodetypes="cccccccccccccscssccccscscccscsssccccccscccccccccccccccccccscscccsccccccccccccccccccccccccssccccccc" />
  <g
     transform="matrix(2.39286,0,0,2.39286,-101.5141,-570.511)"
     id="g4168">
    <g
       transform="translate(-34.76)"
       id="g4117">
      <circle
         cx="142.819"
         cy="277.814"
         r="32.694"
         id="circle4099"
         style="fill:#ffffff" />
      <clipPath
         id="a">
        <circle
           cx="142.819"
           cy="277.814"
           r="32.694"
           id="circle4101" />
      </clipPath>
      <g
         clip-path="url(#a)"
         id="g4115">
        <g
           transform="matrix(1.02983,0,0,1.02983,-561.623,-7.699)"
           id="g4113">
          <path
             d="m 678.582,329.391 c -1.104,-0.033 -12.947,0.14 -15.724,-1.062 C 658.804,326.573 655,323.694 655,319.275 V 299 c 0,-7.18 5.82,-13 13,-13 h 6 a 18,18 0 0 1 18,18 c 0,6.916 -0.054,11.086 0,15 0.052,3.784 -1.6,5.938 -5.218,6.031 -1.001,0.026 -2.804,-0.038 -2.804,-0.038 0.021,2.741 -2.595,4.481 -5.396,4.398 z"
             id="path4104"
             inkscape:connector-curvature="0"
             style="fill:#dcce07" />
          <clipPath
             id="b">
            <path
               d="m 678.582,329.391 c -1.104,-0.033 -12.947,0.14 -15.724,-1.062 C 658.804,326.573 655,323.694 655,319.275 V 299 c 0,-7.18 5.82,-13 13,-13 h 6 a 18,18 0 0 1 18,18 c 0,6.916 -0.054,11.086 0,15 0.052,3.784 -1.6,5.938 -5.218,6.031 -1.001,0.026 -2.804,-0.038 -2.804,-0.038 0.021,2.741 -2.595,4.481 -5.396,4.398 z"
               id="path4106"
               inkscape:connector-curvature="0" />
          </clipPath>
          <g
             clip-path="url(#b)"
             id="g4111">
            <path
               d="M 668.506,291.264 C 661.53,287.79 656,281.002 656,272.287 c 0,-12.01 39.631,14.553 37.572,22.057 -0.432,1.573 -1.79,2.654 -3.333,2.654 C 686.675,297 680.217,297 676.014,297 c -1.975,0 -3.802,-1.114 -4.799,-2.925 -0.49,-0.929 -1.325,-1.933 -2.709,-2.81 z"
               id="path4109"
               inkscape:connector-curvature="0"
               style="fill:#1a0937;fill-opacity:0.2" />
          </g>
        </g>
      </g>
    </g>
    <path
       d="m 114.803,298.162 h 13.501 v -1.545 a 1.545,1.545 0 0 1 3.089,0 v 1.545 h 0.515 a 5.664,5.664 0 0 1 0,11.328 h -15.652 c 0.003,-1.265 0.006,-2.631 0.006,-4.12 0,-2.5 -0.505,-4.949 -1.459,-7.208 z"
       id="path4119"
       inkscape:connector-curvature="0"
       style="fill:#dcce07" />
    <clipPath
       id="c">
      <path
         d="m 114.803,298.162 h 13.501 v -1.545 a 1.545,1.545 0 0 1 3.089,0 v 1.545 h 0.515 a 5.664,5.664 0 0 1 0,11.328 h -15.652 c 0.003,-1.265 0.006,-2.631 0.006,-4.12 0,-2.5 -0.505,-4.949 -1.459,-7.208 z"
         id="path4121"
         inkscape:connector-curvature="0" />
    </clipPath>
    <g
       clip-path="url(#c)"
       id="g4128">
      <path
         d="m 121.094,312.28 c 0,0 -2.637,-5.187 -1.03,-8.239 1.607,-3.052 2.113,-4.592 1.03,-6.907 h 1.03 c 0,0 2.398,0.671 1.03,3.818 -1.236,2.839 -4.968,6.022 0,11.328 z"
         id="path4124"
         inkscape:connector-curvature="0"
         style="fill:#1a0937" />
      <path
         d="m 117.29,311.358 c -6.904,0.052 -10.96,-20.606 -5.429,-17.667 4.097,2.177 5.43,7.239 5.43,11.584 v 6.083 z m 14.66,-11.818 c 0.06,-0.077 0.17,-0.1 0.256,-0.053 a 0.2,0.2 0 0 1 0.095,0.242 13.96,13.96 0 0 0 -0.594,4.096 c 0,1.479 0.216,2.872 0.597,4.095 a 0.205,0.205 0 0 1 -0.094,0.25 0.207,0.207 0 0 1 -0.263,-0.059 c -0.79,-1.163 -1.27,-2.657 -1.27,-4.286 0,-1.63 0.48,-3.124 1.273,-4.284 z"
         id="path4126"
         inkscape:connector-curvature="0"
         style="fill:#1a0937;fill-opacity:0.2" />
    </g>
    <path
       d="M 109.053,286.833 H 92.575 V 297.1 a 2.09,2.09 0 0 0 2.09,2.09 h 12.298 a 2.09,2.09 0 0 0 2.09,-2.09 v -10.268 z"
       id="path4130"
       inkscape:connector-curvature="0"
       style="fill:#1a0937" />
    <g
       transform="matrix(0.94542,0,0,0.94542,-535.841,19.094)"
       id="g4152">
      <path
         d="M 663.999,285.224 C 653.96,280.515 646,271.314 646,259.5 c 0,-16.281 13.219,-27.5 29.5,-27.5 16.218,0 29.397,11.115 29.499,27.309 L 705,259.5 c 0.187,9.818 -1.959,19.728 -4.923,29.9 a 4.996,4.996 0 0 1 -4.797,3.597 C 690.151,293 680.855,293 674.806,293 a 8,8 0 0 1 -6.907,-3.965 c -0.705,-1.259 -1.908,-2.62 -3.899,-3.81 z"
         id="path4132"
         inkscape:connector-curvature="0"
         style="fill:#dcce07" />
      <clipPath
         id="d">
        <path
           d="M 663.999,285.224 C 653.96,280.515 646,271.314 646,259.5 c 0,-16.281 13.219,-27.5 29.5,-27.5 16.218,0 29.397,11.115 29.499,27.309 L 705,259.5 c 0.187,9.818 -1.959,19.728 -4.923,29.9 a 4.996,4.996 0 0 1 -4.797,3.597 C 690.151,293 680.855,293 674.806,293 a 8,8 0 0 1 -6.907,-3.965 c -0.705,-1.259 -1.908,-2.62 -3.899,-3.81 z"
           id="path4134"
           inkscape:connector-curvature="0" />
      </clipPath>
      <g
         clip-path="url(#d)"
         id="g4150">
        <path
           d="m 660.153,274.847 c -0.34,-0.049 -0.429,-0.534 -0.335,-0.865 a 0.77,0.77 0 0 1 0.74,-0.558 c 0.388,-0.03 1.885,-0.03 2.306,-0.03 2.219,0 4.347,0.88 5.916,2.45 1.57,1.569 2.45,4.786 2.45,7.006 v 0.002 c 0,0.37 -0.266,0.685 -0.63,0.749 -0.364,0.063 -0.745,-0.136 -0.847,-0.492 -1.315,-4.613 -4.386,-7.52 -9.6,-8.262 z"
           id="path4137"
           inkscape:connector-curvature="0"
           style="fill:#1a0937;fill-opacity:0.1" />
        <g
           transform="matrix(1.24018,-0.10828,0.12181,1.3952,-197.618,-36.852)"
           id="g4148">
          <circle
             cx="658.45001"
             cy="268"
             r="7"
             id="circle4139"
             style="fill:#1a0937" />
          <clipPath
             id="e">
            <circle
               cx="658.45001"
               cy="268"
               r="7"
               id="circle4141" />
          </clipPath>
          <g
             clip-path="url(#e)"
             id="g4146">
            <path
               d="m 658.45,268 v 8 h -7.926 v -8 z m 7.926,-8 v 8 h -7.926 v -8 z"
               id="path4144"
               inkscape:connector-curvature="0"
               style="fill:#ffffff" />
          </g>
        </g>
      </g>
    </g>
    <path
       d="m 105.962,284.775 h 15.447 v 2.06 h -15.447 z"
       id="path4154"
       inkscape:connector-curvature="0"
       style="fill:#1a0937" />
    <circle
       cx="675"
       cy="268"
       r="4"
       transform="matrix(1.61091,0,0,1.61091,-986.55,-162.398)"
       id="circle4156"
       style="fill:#1a0937;fill-opacity:0.1" />
    <circle
       cx="675"
       cy="268"
       r="4"
       transform="matrix(1.28729,0,0,1.28729,-768.107,-75.668)"
       id="circle4158"
       style="fill:#ffffff" />
    <circle
       cx="675"
       cy="268"
       r="4"
       transform="matrix(0.25746,0,0,0.25746,-72.97,200.328)"
       id="circle4160"
       style="fill:#1a0937" />
    <circle
       cx="675"
       cy="268"
       r="4"
       transform="matrix(1.61091,0,0,1.61091,-963.894,-162.398)"
       id="circle4162"
       style="fill:#1a0937;fill-opacity:0.1" />
    <circle
       cx="675"
       cy="268"
       r="4"
       transform="matrix(1.28729,0,0,1.28729,-745.451,-75.668)"
       id="circle4164"
       style="fill:#ffffff" />
    <circle
       cx="675"
       cy="268"
       r="4"
       transform="matrix(0.25746,0,0,0.25746,-50.313,200.328)"
       id="circle4166"
       style="fill:#1a0937" />
  </g>
</svg>
