<svg viewBox="0 0 313 228" xmlns="http://www.w3.org/2000/svg" fill-rule="evenodd" clip-rule="evenodd" stroke-linejoin="round" stroke-miterlimit="1.414"><path fill="none" d="M.108.03h312.876v227.727H.108z"/><path d="M20.627 227.75h-7.396l10.449-46.56h7.396l-10.449 46.56zm-13.123 0H.108l10.449-46.56h7.396L7.504 227.75zm136.898-7.292a23.275 23.275 0 0 1-5.504-1.828v-6.807c3.557 1.877 7.465 2.816 11.723 2.816 1.653 0 2.865-.28 3.635-.84.77-.561 1.156-1.304 1.156-2.228 0-.925-.344-1.618-1.03-2.08-.686-.462-1.912-.932-3.677-1.408l-2.857-.798c-1.681-.476-3.138-1.03-4.37-1.66-1.233-.63-2.283-1.576-3.152-2.837-.869-1.26-1.303-2.885-1.303-4.874 0-3.278 1.002-5.771 3.005-7.48 2.002-1.71 4.825-2.563 8.467-2.563 2.186 0 4.104.196 5.757.588 1.653.393 3.348.994 5.085 1.807v6.555c-3.194-1.709-6.807-2.563-10.842-2.563-1.484 0-2.521.252-3.11.756-.588.504-.882 1.233-.882 2.186 0 .644.14 1.155.42 1.533.28.378.715.694 1.303.946s1.471.546 2.648.882l2.9.798c1.791.505 3.333 1.093 4.621 1.766 1.289.672 2.36 1.666 3.215 2.983.854 1.316 1.282 3.012 1.282 5.085-.028 3.053-1.128 5.455-3.3 7.206-2.17 1.752-5.161 2.627-8.97 2.627-2.242 0-4.315-.19-6.22-.568zm-93.132.232h-9.58l-7.817-32.23h7.354l5.337 23.447 5.967-23.448h8.825l6.008 23.448 5.295-23.448h7.354l-7.774 32.23h-9.581l-5.715-21.64-5.673 21.64zm45.78-.379H83.728V188.46H97.05c4.09 0 6.996.729 8.719 2.185 1.723 1.457 2.584 3.572 2.584 6.345 0 1.737-.35 3.194-1.05 4.37-.7 1.177-1.835 2.102-3.404 2.774 1.793.588 3.194 1.5 4.203 2.732 1.007 1.232 1.512 2.745 1.512 4.538 0 2.997-.967 5.231-2.9 6.702-1.932 1.471-5.154 2.206-9.664 2.206zm30.862 0h-7.565v-25.38h-8.698v-6.472h24.961v6.471h-8.698v25.381zm53.025 0h-7.564v-25.38h-8.698v-6.472h24.96v6.471h-8.698v25.381zm19.558 0h-7.564V188.46h12.901c8.096 0 12.144 3.404 12.144 10.211 0 4.847-2.116 7.956-6.345 9.33l7.606 12.311h-8.405l-6.807-11.514h-3.53v11.514zm28.299 0h-7.732v-7.605h7.732v7.605zm11.28 0h-7.564V188.46h8.698l11.43 19.582v-19.582h7.564v31.852h-8.699l-11.43-19.582v19.582zm45.494 0h-21.263V188.46h21.053v6.051h-13.49v6.766h11.39v6.05h-11.39v6.934h13.7v6.051zm27.416-25.38h-8.698v25.38h-7.565v-25.38h-8.698v-6.472h24.961v6.471z" fill="#fff"/><g transform="translate(-103.361 -570.511) scale(2.39286)"><g transform="translate(-34.76)"><circle cx="142.819" cy="277.814" r="32.694" fill="#fff"/><clipPath id="a"><circle cx="142.819" cy="277.814" r="32.694"/></clipPath><g clip-path="url(#a)"><g transform="translate(-561.623 -7.699) scale(1.02983)"><path d="M678.582 329.391c-1.104-.033-12.947.14-15.724-1.062-4.054-1.756-7.858-4.635-7.858-9.054V299c0-7.18 5.82-13 13-13h6a18 18 0 0 1 18 18c0 6.916-.054 11.086 0 15 .052 3.784-1.6 5.938-5.218 6.031-1.001.026-2.804-.038-2.804-.038.021 2.741-2.595 4.481-5.396 4.398z" fill="#dcce07"/><clipPath id="b"><path d="M678.582 329.391c-1.104-.033-12.947.14-15.724-1.062-4.054-1.756-7.858-4.635-7.858-9.054V299c0-7.18 5.82-13 13-13h6a18 18 0 0 1 18 18c0 6.916-.054 11.086 0 15 .052 3.784-1.6 5.938-5.218 6.031-1.001.026-2.804-.038-2.804-.038.021 2.741-2.595 4.481-5.396 4.398z"/></clipPath><g clip-path="url(#b)"><path d="M668.506 291.264C661.53 287.79 656 281.002 656 272.287c0-12.01 39.631 14.553 37.572 22.057-.432 1.573-1.79 2.654-3.333 2.654-3.564.002-10.022.002-14.225.002-1.975 0-3.802-1.114-4.799-2.925-.49-.929-1.325-1.933-2.709-2.81v-.001z" fill="#1a0937" fill-opacity=".2"/></g></g></g></g><path d="M114.803 298.162h13.501v-1.545a1.545 1.545 0 0 1 3.089 0v1.545h.515a5.664 5.664 0 0 1 0 11.328h-15.652c.003-1.265.006-2.631.006-4.12 0-2.5-.505-4.949-1.459-7.208z" fill="#dcce07"/><clipPath id="c"><path d="M114.803 298.162h13.501v-1.545a1.545 1.545 0 0 1 3.089 0v1.545h.515a5.664 5.664 0 0 1 0 11.328h-15.652c.003-1.265.006-2.631.006-4.12 0-2.5-.505-4.949-1.459-7.208z"/></clipPath><g clip-path="url(#c)"><path d="M121.094 312.28s-2.637-5.187-1.03-8.239c1.607-3.052 2.113-4.592 1.03-6.907h1.03s2.398.671 1.03 3.818c-1.236 2.839-4.968 6.022 0 11.328h-2.06z" fill="#1a0937"/><path d="M117.29 311.358c-6.904.052-10.96-20.606-5.429-17.667 4.097 2.177 5.43 7.239 5.43 11.584v6.083zM131.95 299.54c.06-.077.17-.1.256-.053a.2.2 0 0 1 .095.242 13.96 13.96 0 0 0-.594 4.096c0 1.479.216 2.872.597 4.095a.205.205 0 0 1-.094.25.207.207 0 0 1-.263-.059c-.79-1.163-1.27-2.657-1.27-4.286 0-1.63.48-3.124 1.273-4.284z" fill="#1a0937" fill-opacity=".2"/></g><path d="M109.053 286.833H92.575V297.1a2.09 2.09 0 0 0 2.09 2.09h12.298a2.09 2.09 0 0 0 2.09-2.09v-10.268z" fill="#1a0937"/><g transform="translate(-535.841 19.094) scale(.94542)"><path d="M663.999 285.224C653.96 280.515 646 271.314 646 259.5c0-16.281 13.219-27.5 29.5-27.5 16.218 0 29.397 11.115 29.499 27.309l.001.191c.187 9.818-1.959 19.728-4.923 29.9a4.996 4.996 0 0 1-4.797 3.597c-5.129.003-14.425.003-20.474.003a8 8 0 0 1-6.907-3.965c-.705-1.259-1.908-2.62-3.899-3.81l-.001-.001z" fill="#dcce07"/><clipPath id="d"><path d="M663.999 285.224C653.96 280.515 646 271.314 646 259.5c0-16.281 13.219-27.5 29.5-27.5 16.218 0 29.397 11.115 29.499 27.309l.001.191c.187 9.818-1.959 19.728-4.923 29.9a4.996 4.996 0 0 1-4.797 3.597c-5.129.003-14.425.003-20.474.003a8 8 0 0 1-6.907-3.965c-.705-1.259-1.908-2.62-3.899-3.81l-.001-.001z"/></clipPath><g clip-path="url(#d)"><path d="M660.153 274.847c-.34-.049-.429-.534-.335-.865a.77.77 0 0 1 .74-.558c.388-.03 1.885-.03 2.306-.03 2.219 0 4.347.88 5.916 2.45 1.57 1.569 2.45 4.786 2.45 7.006v.002c0 .37-.266.685-.63.749-.364.063-.745-.136-.847-.492-1.315-4.613-4.386-7.52-9.6-8.262z" fill="#1a0937" fill-opacity=".1"/><g transform="matrix(1.24018 -.10828 .12181 1.3952 -197.618 -36.852)"><circle cx="658.45" cy="268" r="7" fill="#1a0937"/><clipPath id="e"><circle cx="658.45" cy="268" r="7"/></clipPath><g clip-path="url(#e)"><path d="M658.45 268v8h-7.926v-8h7.926zm7.926-8v8h-7.926v-8h7.926z" fill="#fff"/></g></g></g></g><path fill="#1a0937" d="M105.962 284.775h15.447v2.06h-15.447z"/><circle cx="675" cy="268" r="4" fill="#1a0937" fill-opacity=".1" transform="translate(-986.55 -162.398) scale(1.61091)"/><circle cx="675" cy="268" r="4" fill="#fff" transform="translate(-768.107 -75.668) scale(1.28729)"/><circle cx="675" cy="268" r="4" fill="#1a0937" transform="matrix(.25746 0 0 .25746 -72.97 200.328)"/><circle cx="675" cy="268" r="4" fill="#1a0937" fill-opacity=".1" transform="translate(-963.894 -162.398) scale(1.61091)"/><circle cx="675" cy="268" r="4" fill="#fff" transform="translate(-745.451 -75.668) scale(1.28729)"/><circle cx="675" cy="268" r="4" fill="#1a0937" transform="matrix(.25746 0 0 .25746 -50.313 200.328)"/></g></svg>