<svg xmlns="http://www.w3.org/2000/svg" viewBox="0 0 517 98" fill-rule="evenodd" clip-rule="evenodd" stroke-linejoin="round" stroke-miterlimit="1.414"><path fill="none" d="M.34.954h515.981v96.622H.34z"/><ellipse cx="117.235" cy="166.427" rx="23.737" ry="2.93" fill="#1a0937" fill-opacity=".1" transform="translate(-79.641 -51.293) scale(.87902)"/><g transform="translate(-551.684 -206.494) scale(.87902)"><path d="M663 344h-1a5 5 0 0 1-5-5v-13.138a6 6 0 0 1 12 0v12.625c0 .283.208.522.488.562a2.929 2.929 0 0 1 1.633.83c.563.562.879 1.325.879 2.121v.5a1.503 1.503 0 0 1-1.5 1.5H663z" fill="#dcce07"/><clipPath id="a"><path d="M663 344h-1a5 5 0 0 1-5-5v-13.138a6 6 0 0 1 12 0v12.625c0 .283.208.522.488.562a2.929 2.929 0 0 1 1.633.83c.563.562.879 1.325.879 2.121v.5a1.503 1.503 0 0 1-1.5 1.5H663z"/></clipPath><g clip-path="url(#a)" fill="#1a0937"><path d="M670 339h-4s.054-1 4-1v1z" fill-opacity=".1"/><path d="M656.72 327.529c-1.653-6.245 1.92-10.117 13.418-10.391.052 3.784-1.6 5.938-5.218 6.03-1.001.027-2.804-.037-2.804-.037.02 2.74-2.595 4.48-5.396 4.398z" fill-opacity=".2"/></g></g><g transform="translate(-580.962 -209.131) scale(.87902)"><path d="M714 297v-1.5a1.503 1.503 0 0 1 1.5-1.5 1.503 1.503 0 0 1 1.5 1.5v1.5h.5a5.5 5.5 0 1 1 0 11h-17a5.5 5.5 0 1 1 0-11H714z" fill="#dcce07"/><clipPath id="b"><path d="M714 297v-1.5a1.503 1.503 0 0 1 1.5-1.5 1.503 1.503 0 0 1 1.5 1.5v1.5h.5a5.5 5.5 0 1 1 0 11h-17a5.5 5.5 0 1 1 0-11H714z"/></clipPath><g clip-path="url(#b)" fill="#1a0937"><path d="M707 310.707s-2.56-5.036-1-8c1.56-2.964 2.052-4.459 1-6.707h1s2.329.652 1 3.707c-1.2 2.757-4.824 5.848 0 11h-2z"/><path d="M703.307 309.814c-6.704.05-10.643-20.01-5.272-17.155 3.978 2.114 5.272 7.03 5.272 11.248v5.907zm14.236-11.474a.195.195 0 0 1 .248-.052.195.195 0 0 1 .093.235 13.556 13.556 0 0 0-.577 3.977c0 1.436.21 2.789.58 3.976a.2.2 0 0 1-.092.244.2.2 0 0 1-.255-.058c-.768-1.129-1.233-2.58-1.233-4.162 0-1.582.465-3.033 1.236-4.16z" fill-opacity=".2"/></g></g><g transform="translate(-571.902 -209.131) scale(.87902)"><path d="M678.582 329.391c-1.104-.033-12.947.14-15.724-1.062-4.054-1.756-7.858-4.635-7.858-9.054V299c0-7.18 5.82-13 13-13h6a18 18 0 0 1 18 18c0 6.916-.054 11.086 0 15 .052 3.784-1.6 5.938-5.218 6.031-1.001.026-2.804-.038-2.804-.038.021 2.741-2.595 4.481-5.396 4.398z" fill="#dcce07"/><clipPath id="c"><path d="M678.582 329.391c-1.104-.033-12.947.14-15.724-1.062-4.054-1.756-7.858-4.635-7.858-9.054V299c0-7.18 5.82-13 13-13h6a18 18 0 0 1 18 18c0 6.916-.054 11.086 0 15 .052 3.784-1.6 5.938-5.218 6.031-1.001.026-2.804-.038-2.804-.038.021 2.741-2.595 4.481-5.396 4.398z"/></clipPath><g clip-path="url(#c)"><path d="M668.506 291.264C661.53 287.79 656 281.002 656 272.287c0-12.01 39.631 14.553 37.572 22.057-.432 1.573-1.79 2.654-3.333 2.654-3.564.002-10.022.002-14.225.002-1.975 0-3.802-1.114-4.799-2.925-.49-.929-1.325-1.933-2.709-2.81v-.001zm-10.634 35.802c-.323.046-.64.07-.94.07-3.038 0-5.501-3.6-5.501-6.637v-18.637a5 5 0 0 1 5-5h2.137c1.327 0 2.585.54 3.536 1.464 1.418 1.376 1.464 3.347 1.464 4.673v15.88c.117-.284 1.653 1.553 1.708 2.327a7.3 7.3 0 0 1 .02.61c.27.01.55.026.842.045a6 6 0 0 1 6 6v12.488c0 .282.208.522.488.562a2.923 2.923 0 0 1 1.632.83c.563.562.88 1.324.88 2.12v.5a1.504 1.504 0 0 1-1.5 1.5h-10.776a5 5 0 0 1-5-5v-13c0-.266 0-.532.009-.795z" fill="#1a0937" fill-opacity=".2"/></g></g><path d="M30.223 42.268H16.16v5.548a4.997 4.997 0 0 0 5 5h4.065a4.998 4.998 0 0 0 5-5v-5.548z" fill="#1a0937"/><g transform="translate(-520.226 -186.262) scale(.80697)"><path d="M663.999 285.224C653.96 280.515 646 271.314 646 259.5c0-16.281 13.219-27.5 29.5-27.5 16.218 0 29.397 11.115 29.499 27.309l.001.191c.187 9.818-1.959 19.728-4.923 29.9a4.996 4.996 0 0 1-4.797 3.597c-5.129.003-14.425.003-20.474.003a8 8 0 0 1-6.907-3.965c-.705-1.259-1.908-2.62-3.899-3.81l-.001-.001z" fill="#dcce07"/><clipPath id="d"><path d="M663.999 285.224C653.96 280.515 646 271.314 646 259.5c0-16.281 13.219-27.5 29.5-27.5 16.218 0 29.397 11.115 29.499 27.309l.001.191c.187 9.818-1.959 19.728-4.923 29.9a4.996 4.996 0 0 1-4.797 3.597c-5.129.003-14.425.003-20.474.003a8 8 0 0 1-6.907-3.965c-.705-1.259-1.908-2.62-3.899-3.81l-.001-.001z"/></clipPath><g clip-path="url(#d)"><path d="M660.153 274.847c-.34-.049-.429-.534-.335-.865a.77.77 0 0 1 .74-.558c.388-.03 1.885-.03 2.306-.03 2.219 0 4.347.88 5.916 2.45 1.57 1.569 2.45 4.786 2.45 7.006v.002a.76.76 0 0 1-.63.749c-.364.063-.745-.136-.847-.492-1.315-4.613-4.386-7.52-9.6-8.262z" fill="#1a0937" fill-opacity=".1"/><g transform="matrix(1.24018 -.10828 .12181 1.3952 -197.618 -36.852)"><circle cx="658.45" cy="268" r="7" fill="#1a0937"/><clipPath id="e"><circle cx="658.45" cy="268" r="7"/></clipPath><g clip-path="url(#e)"><path d="M658.45 268v8h-7.926v-8h7.926zm7.926-8v8h-7.926v-8h7.926z" fill="#fff"/></g></g></g></g><path fill="#1a0937" d="M27.59 40.51h13.185v1.758H27.59z"/><circle cx="675" cy="268" r="4" fill="#1a0937" fill-opacity=".1" transform="translate(-904.932 -341.175) scale(1.375)"/><circle cx="675" cy="268" r="4" fill="#fff" transform="translate(-718.478 -267.146) scale(1.09877)"/><circle cx="675" cy="268" r="4" fill="#1a0937" transform="translate(-125.14 -31.57) scale(.21975)"/><circle cx="675" cy="268" r="4" fill="#1a0937" fill-opacity=".1" transform="translate(-885.593 -341.175) scale(1.375)"/><circle cx="675" cy="268" r="4" fill="#fff" transform="translate(-699.14 -267.146) scale(1.09877)"/><circle cx="675" cy="268" r="4" fill="#1a0937" transform="translate(-105.802 -31.57) scale(.21975)"/><g transform="translate(-563.112 -205.615) scale(.87902)"><path d="M651.595 318.576A5.502 5.502 0 0 1 646.5 322a5.5 5.5 0 0 1-5.5-5.5V299c0-1.326.527-2.598 1.464-3.536A5.004 5.004 0 0 1 646 294h1c1.326 0 2.598.527 3.536 1.464A5.004 5.004 0 0 1 652 299v15.879l1.268 1.267a1.503 1.503 0 0 1 0 2.122 1.503 1.503 0 0 1-1.673.308z" fill="#dcce07"/><clipPath id="f"><path d="M651.595 318.576A5.502 5.502 0 0 1 646.5 322a5.5 5.5 0 0 1-5.5-5.5V299c0-1.326.527-2.598 1.464-3.536A5.004 5.004 0 0 1 646 294h1c1.326 0 2.598.527 3.536 1.464A5.004 5.004 0 0 1 652 299v15.879l1.268 1.267a1.503 1.503 0 0 1 0 2.122 1.503 1.503 0 0 1-1.673.308z"/></clipPath><g clip-path="url(#f)"><path d="M639 307s5.036-2.56 8-1c2.964 1.56 4.459 2.052 6.707 1v1s-.652 2.329-3.707 1c-2.757-1.2-5.848-4.824-11 0v-2z" fill="#1a0937"/></g></g><path d="M24.512 60.727a.44.44 0 0 0 .44-.439s-.033.141 0 0c.068-.299.39-.44.879-.44h.879c.692 0 .72.238.879.44a.44.44 0 0 0 .128.311.443.443 0 0 0 .311.128h3.956a.877.877 0 0 1 .879.88.877.877 0 0 1-.88.879H17.92a.877.877 0 0 1-.879-.88.877.877 0 0 1 .88-.879h6.592z" fill="#1a0937" fill-opacity=".1"/><g transform="translate(-570.144 -206.494) scale(.87902)"><path d="M663 344h-1a5 5 0 0 1-5-5v-13a6 6 0 1 1 12 0v12.487c0 .283.208.522.488.562a2.929 2.929 0 0 1 1.633.83c.563.562.879 1.325.879 2.121v.5a1.503 1.503 0 0 1-1.5 1.5H663z" fill="#dcce07"/><clipPath id="g"><path d="M663 344h-1a5 5 0 0 1-5-5v-13a6 6 0 1 1 12 0v12.487c0 .283.208.522.488.562a2.929 2.929 0 0 1 1.633.83c.563.562.879 1.325.879 2.121v.5a1.503 1.503 0 0 1-1.5 1.5H663z"/></clipPath><g clip-path="url(#g)"><path d="M670 339h-4s.054-1 4-1v1z" fill="#1a0937" fill-opacity=".1"/></g></g><path d="M105.742 89.527H95.355L110.03 24.14h10.386l-14.673 65.388zm-18.43 0H76.926L91.599 24.14h10.387zm192.256-10.24a32.686 32.686 0 0 1-7.73-2.566v-9.56c4.996 2.635 10.485 3.954 16.464 3.954 2.322 0 4.023-.394 5.105-1.18 1.082-.787 1.623-1.83 1.623-3.128 0-1.299-.482-2.273-1.446-2.921-.964-.65-2.685-1.31-5.164-1.978l-4.012-1.12c-2.361-.67-4.407-1.447-6.138-2.331-1.73-.886-3.206-2.214-4.425-3.984-1.22-1.77-1.83-4.053-1.83-6.846 0-4.603 1.406-8.105 4.219-10.504 2.812-2.4 6.777-3.6 11.892-3.6 3.069 0 5.763.276 8.084.827 2.322.55 4.701 1.395 7.141 2.536v9.207c-4.485-2.4-9.56-3.6-15.225-3.6-2.086 0-3.542.354-4.368 1.062-.826.708-1.24 1.73-1.24 3.069 0 .905.197 1.623.59 2.154.395.53 1.004.974 1.831 1.328.825.353 2.066.767 3.718 1.239l4.072 1.121c2.517.71 4.682 1.535 6.491 2.48 1.81.944 3.314 2.34 4.515 4.19 1.2 1.848 1.8 4.228 1.8 7.14-.04 4.288-1.584 7.661-4.633 10.12-3.05 2.46-7.25 3.689-12.6 3.689-3.147 0-6.058-.266-8.734-.797zm-130.792.326h-13.455L124.344 34.35h10.328l7.494 32.928 8.38-32.928h12.394l8.439 32.928 7.435-32.928h10.328l-10.918 45.263h-13.456l-8.025-30.392zm64.292-.531H194.36V34.35h18.708c5.744 0 9.826 1.023 12.244 3.067 2.42 2.046 3.63 5.017 3.63 8.911 0 2.44-.492 4.486-1.474 6.138-.984 1.652-2.577 2.951-4.782 3.896 2.519.825 4.486 2.105 5.903 3.835 1.415 1.731 2.124 3.855 2.124 6.374 0 4.21-1.358 7.347-4.072 9.412-2.715 2.066-7.24 3.099-13.573 3.099zm43.342 0h-10.623V43.437H233.57V34.35h35.054v9.087H256.41zm74.467 0h-10.622V43.437h-12.216V34.35h35.053v9.087h-12.215zm27.467 0H347.72V34.35h18.118c11.37 0 17.055 4.78 17.055 14.34 0 6.806-2.971 11.172-8.911 13.1l10.682 17.292H372.86l-9.56-16.17h-4.957v16.17z" fill="#1a0937"/></svg>