<?xml version="1.0" encoding="UTF-8" standalone="no"?>
<!DOCTYPE svg PUBLIC "-//W3C//DTD SVG 1.1//EN" "http://www.w3.org/Graphics/SVG/1.1/DTD/svg11.dtd">
<svg width="100%" height="100%" viewBox="0 0 313 228" version="1.1" xmlns="http://www.w3.org/2000/svg" xmlns:xlink="http://www.w3.org/1999/xlink" xml:space="preserve" style="fill-rule:evenodd;clip-rule:evenodd;stroke-linejoin:round;stroke-miterlimit:1.41421;">
    <g transform="matrix(1,0,0,1,-993,-1342)">
        <g id="logo-stacked-light" transform="matrix(1,0,0,1,12.388,0)">
            <rect x="980.72" y="1342.03" width="312.876" height="227.727" style="fill:none;"/>
            <g transform="matrix(1,0,0,1,823.189,1005.99)">
                <g transform="matrix(0.873398,0,0,0.873398,18.0865,439.507)">
                    <g id="WBTSTR.NET">
                        <path d="M183.151,142.263L174.683,142.263L186.646,88.954L195.114,88.954L183.151,142.263ZM168.126,142.263L159.658,142.263L171.621,88.954L180.089,88.954L168.126,142.263ZM324.867,133.915C322.686,133.482 320.585,132.785 318.565,131.822L318.565,124.028C322.638,126.177 327.113,127.252 331.988,127.252C333.881,127.252 335.268,126.931 336.15,126.29C337.032,125.648 337.473,124.798 337.473,123.74C337.473,122.681 337.08,121.887 336.294,121.358C335.508,120.829 334.105,120.291 332.084,119.746L328.813,118.832C326.888,118.287 325.22,117.653 323.809,116.932C322.398,116.21 321.195,115.127 320.201,113.684C319.206,112.241 318.709,110.38 318.709,108.103C318.709,104.35 319.856,101.495 322.149,99.539C324.442,97.582 327.674,96.604 331.844,96.604C334.346,96.604 336.543,96.829 338.435,97.278C340.328,97.727 342.268,98.416 344.257,99.346L344.257,106.852C340.6,104.895 336.463,103.917 331.844,103.917C330.144,103.917 328.957,104.206 328.283,104.783C327.61,105.36 327.273,106.194 327.273,107.285C327.273,108.023 327.433,108.608 327.754,109.041C328.075,109.474 328.572,109.835 329.246,110.124C329.919,110.412 330.93,110.749 332.277,111.134L335.597,112.048C337.649,112.626 339.414,113.299 340.889,114.069C342.364,114.839 343.591,115.977 344.57,117.485C345.548,118.992 346.037,120.933 346.037,123.307C346.005,126.803 344.746,129.553 342.26,131.558C339.774,133.563 336.35,134.565 331.988,134.565C329.422,134.565 327.049,134.348 324.867,133.915ZM218.236,134.18L207.266,134.18L198.317,97.278L206.737,97.278L212.847,124.124L219.679,97.278L229.783,97.278L236.663,124.124L242.725,97.278L251.145,97.278L242.244,134.18L231.274,134.18L224.731,109.402L218.236,134.18ZM270.651,133.747L255.399,133.747L255.399,97.278L270.651,97.278C275.334,97.278 278.662,98.112 280.634,99.779C282.607,101.447 283.593,103.869 283.593,107.044C283.593,109.033 283.192,110.701 282.391,112.048C281.589,113.395 280.29,114.454 278.493,115.224C280.546,115.897 282.15,116.94 283.305,118.351C284.459,119.762 285.037,121.494 285.037,123.547C285.037,126.979 283.93,129.537 281.717,131.221C279.504,132.905 275.815,133.747 270.651,133.747ZM305.987,133.747L297.326,133.747L297.326,104.687L287.367,104.687L287.367,97.278L315.946,97.278L315.946,104.687L305.987,104.687L305.987,133.747ZM366.698,133.747L358.038,133.747L358.038,104.687L348.079,104.687L348.079,97.278L376.657,97.278L376.657,104.687L366.698,104.687L366.698,133.747ZM389.091,133.747L380.431,133.747L380.431,97.278L395.202,97.278C404.471,97.278 409.106,101.175 409.106,108.969C409.106,114.518 406.684,118.078 401.841,119.65L410.55,133.747L400.927,133.747L393.133,120.564L389.091,120.564L389.091,133.747ZM421.492,133.747L412.639,133.747L412.639,125.039L421.492,125.039L421.492,133.747ZM434.407,133.747L425.747,133.747L425.747,97.278L435.706,97.278L448.793,119.698L448.793,97.278L457.453,97.278L457.453,133.747L447.493,133.747L434.407,111.326L434.407,133.747ZM486.496,133.747L462.151,133.747L462.151,97.278L486.255,97.278L486.255,104.206L470.811,104.206L470.811,111.952L483.85,111.952L483.85,118.88L470.811,118.88L470.811,126.819L486.496,126.819L486.496,133.747ZM517.886,104.687L507.927,104.687L507.927,133.747L499.266,133.747L499.266,104.687L489.307,104.687L489.307,97.278L517.886,97.278L517.886,104.687Z" style="fill:white;"/>
                    </g>
                </g>
                <g transform="matrix(2.39286,0,0,2.39286,54.0618,-234.501)">
                    <g transform="matrix(1,0,0,1,-34.7592,0)">
                        <circle cx="142.819" cy="277.814" r="32.694" style="fill:white;"/>
                        <clipPath id="_clip1">
                            <circle cx="142.819" cy="277.814" r="32.694"/>
                        </clipPath>
                        <g clip-path="url(#_clip1)">
                            <g transform="matrix(1.02983,0,0,1.02983,-561.623,-7.69867)">
                                <path d="M678.582,329.391C677.478,329.358 665.635,329.531 662.858,328.329C658.804,326.573 655,323.694 655,319.275C655,314.094 655,304.953 655,299C655,291.82 660.82,286 668,286C669.943,286 671.976,286 674,286C678.774,286 683.352,287.896 686.728,291.272C690.104,294.648 692,299.226 692,304C692,310.916 691.946,315.086 692,319C692.052,322.784 690.4,324.938 686.782,325.031C685.781,325.057 683.978,324.993 683.978,324.993C683.999,327.734 681.383,329.474 678.582,329.391Z" style="fill:rgb(220,206,7);"/>
                                <clipPath id="_clip2">
                                    <path d="M678.582,329.391C677.478,329.358 665.635,329.531 662.858,328.329C658.804,326.573 655,323.694 655,319.275C655,314.094 655,304.953 655,299C655,291.82 660.82,286 668,286C669.943,286 671.976,286 674,286C678.774,286 683.352,287.896 686.728,291.272C690.104,294.648 692,299.226 692,304C692,310.916 691.946,315.086 692,319C692.052,322.784 690.4,324.938 686.782,325.031C685.781,325.057 683.978,324.993 683.978,324.993C683.999,327.734 681.383,329.474 678.582,329.391Z"/>
                                </clipPath>
                                <g clip-path="url(#_clip2)">
                                    <g transform="matrix(0.694782,0,0,0.737705,207.171,80.8525)">
                                        <path d="M663.999,285.224C653.96,280.515 646,271.314 646,259.5C646,243.219 703.041,279.228 700.077,289.4C699.455,291.532 697.501,292.997 695.28,292.997C690.151,293 680.855,293 674.806,293C671.963,293 669.333,291.49 667.899,289.035C667.194,287.776 665.991,286.415 664,285.225L663.999,285.224Z" style="fill:rgb(26,9,55);fill-opacity:0.2;"/>
                                    </g>
                                </g>
                            </g>
                        </g>
                    </g>
                    <path d="M114.803,298.162L128.304,298.162L128.304,296.617C128.304,296.207 128.466,295.814 128.756,295.525C129.046,295.235 129.439,295.072 129.848,295.072C130.258,295.072 130.651,295.235 130.941,295.525C131.23,295.814 131.393,296.207 131.393,296.617L131.393,298.162L131.908,298.162C135.036,298.162 137.572,300.698 137.572,303.826C137.572,303.826 137.572,303.826 137.572,303.826C137.572,306.954 135.036,309.49 131.908,309.49L116.256,309.49C116.259,308.225 116.262,306.859 116.262,305.37C116.262,302.87 115.757,300.421 114.803,298.162Z" style="fill:rgb(220,206,7);"/>
                    <clipPath id="_clip3">
                        <path d="M114.803,298.162L128.304,298.162L128.304,296.617C128.304,296.207 128.466,295.814 128.756,295.525C129.046,295.235 129.439,295.072 129.848,295.072C130.258,295.072 130.651,295.235 130.941,295.525C131.23,295.814 131.393,296.207 131.393,296.617L131.393,298.162L131.908,298.162C135.036,298.162 137.572,300.698 137.572,303.826C137.572,303.826 137.572,303.826 137.572,303.826C137.572,306.954 135.036,309.49 131.908,309.49L116.256,309.49C116.259,308.225 116.262,306.859 116.262,305.37C116.262,302.87 115.757,300.421 114.803,298.162Z"/>
                    </clipPath>
                    <g clip-path="url(#_clip3)">
                        <g transform="matrix(6.30591e-17,-1.02983,1.02983,6.30591e-17,-195.064,970.341)">
                            <path d="M639,307C639,307 644.036,304.44 647,306C649.964,307.56 651.459,308.052 653.707,307L653.707,308C653.707,308 653.055,310.329 650,309C647.243,307.8 644.152,304.176 639,309L639,307Z" style="fill:rgb(26,9,55);"/>
                        </g>
                        <g transform="matrix(1.02983,0,0,0.910085,-595.352,28.6089)">
                            <path d="M692,310.684C685.296,310.741 681.357,288.042 686.728,291.272C690.706,293.664 692,299.226 692,304C692,310.916 692,310.684 692,310.684Z" style="fill:rgb(26,9,55);fill-opacity:0.2;"/>
                        </g>
                        <g transform="matrix(1.02983,0,0,1.02983,-594.323,-4.60917)">
                            <path d="M705.236,295.34C705.295,295.264 705.4,295.242 705.484,295.288C705.568,295.333 705.608,295.432 705.577,295.523C705.21,296.711 705,298.064 705,299.5C705,300.936 705.21,302.289 705.58,303.476C705.614,303.569 705.575,303.673 705.488,303.72C705.4,303.766 705.292,303.742 705.233,303.662C704.465,302.533 704,301.082 704,299.5C704,297.918 704.465,296.467 705.236,295.34Z" style="fill:rgb(26,9,55);fill-opacity:0.2;"/>
                        </g>
                    </g>
                    <g transform="matrix(1.37311,0,0,1.02983,-824.662,-2.5495)">
                        <path d="M680,281L668,281C668,281 668,287.549 668,290.971C668,292.092 668.681,293 669.522,293C671.826,293 676.174,293 678.478,293C679.319,293 680,292.092 680,290.971C680,287.549 680,281 680,281Z" style="fill:rgb(26,9,55);"/>
                    </g>
                    <g transform="matrix(0.94542,0,0,0.94542,-535.841,19.0939)">
                        <path d="M663.999,285.224C653.96,280.515 646,271.314 646,259.5C646,243.219 659.219,232 675.5,232C691.718,232 704.897,243.115 704.999,259.309L705,259.5C705.187,269.318 703.041,279.228 700.077,289.4C699.455,291.532 697.501,292.997 695.28,292.997C690.151,293 680.855,293 674.806,293C671.963,293 669.333,291.49 667.899,289.035C667.194,287.776 665.991,286.415 664,285.225L663.999,285.224Z" style="fill:rgb(220,206,7);"/>
                        <clipPath id="_clip4">
                            <path d="M663.999,285.224C653.96,280.515 646,271.314 646,259.5C646,243.219 659.219,232 675.5,232C691.718,232 704.897,243.115 704.999,259.309L705,259.5C705.187,269.318 703.041,279.228 700.077,289.4C699.455,291.532 697.501,292.997 695.28,292.997C690.151,293 680.855,293 674.806,293C671.963,293 669.333,291.49 667.899,289.035C667.194,287.776 665.991,286.415 664,285.225L663.999,285.224Z"/>
                        </clipPath>
                        <g clip-path="url(#_clip4)">
                            <g transform="matrix(0.492191,0,0,0.492191,339.002,141.486)">
                                <path d="M652.493,270.953C651.802,270.855 651.622,269.868 651.813,269.197C652.004,268.526 652.618,268.063 653.316,268.063C654.103,268 657.145,268 658,268C662.509,268 666.833,269.791 670.021,272.979C673.209,276.167 675,282.704 675,287.213C675,287.213 675,287.215 675,287.218C674.999,287.969 674.458,288.61 673.718,288.739C672.978,288.868 672.204,288.463 671.998,287.74C669.326,278.367 663.087,272.461 652.493,270.953Z" style="fill:rgb(26,9,55);fill-opacity:0.1;"/>
                            </g>
                            <g transform="matrix(1.24018,-0.108276,0.121811,1.3952,-197.618,-36.8521)">
                                <circle cx="658.45" cy="268" r="7" style="fill:rgb(26,9,55);"/>
                                <clipPath id="_clip5">
                                    <circle cx="658.45" cy="268" r="7"/>
                                </clipPath>
                                <g clip-path="url(#_clip5)">
                                    <path d="M658.45,268L658.45,276L650.524,276L650.524,268L658.45,268ZM666.376,260L666.376,268L658.45,268L658.45,260L666.376,260Z" style="fill:white;"/>
                                </g>
                            </g>
                        </g>
                    </g>
                    <g transform="matrix(1.10339,0,0,2.05967,-646.55,-296.052)">
                        <rect x="682" y="282" width="14" height="1" style="fill:rgb(26,9,55);"/>
                    </g>
                    <g transform="matrix(1.61091,0,0,1.61091,-986.55,-162.398)">
                        <circle cx="675" cy="268" r="4" style="fill:rgb(26,9,55);fill-opacity:0.1;"/>
                    </g>
                    <g transform="matrix(1.28729,0,0,1.28729,-768.107,-75.6676)">
                        <circle cx="675" cy="268" r="4" style="fill:white;"/>
                    </g>
                    <g transform="matrix(0.257458,0,0,0.257458,-72.9699,200.328)">
                        <circle cx="675" cy="268" r="4" style="fill:rgb(26,9,55);"/>
                    </g>
                    <g transform="matrix(1.61091,0,0,1.61091,-963.894,-162.398)">
                        <circle cx="675" cy="268" r="4" style="fill:rgb(26,9,55);fill-opacity:0.1;"/>
                    </g>
                    <g transform="matrix(1.28729,0,0,1.28729,-745.451,-75.6676)">
                        <circle cx="675" cy="268" r="4" style="fill:white;"/>
                    </g>
                    <g transform="matrix(0.257458,0,0,0.257458,-50.3135,200.328)">
                        <circle cx="675" cy="268" r="4" style="fill:rgb(26,9,55);"/>
                    </g>
                </g>
            </g>
        </g>
    </g>
</svg>
