<?xml version="1.0" encoding="UTF-8" standalone="no"?>
<!DOCTYPE svg PUBLIC "-//W3C//DTD SVG 1.1//EN" "http://www.w3.org/Graphics/SVG/1.1/DTD/svg11.dtd">
<svg width="100%" height="100%" viewBox="0 0 517 98" version="1.1" xmlns="http://www.w3.org/2000/svg" xmlns:xlink="http://www.w3.org/1999/xlink" xml:space="preserve" style="fill-rule:evenodd;clip-rule:evenodd;stroke-linejoin:round;stroke-miterlimit:1.41421;">
    <g transform="matrix(1,0,0,1,-179,-990)">
        <g id="logo-line-dark" transform="matrix(1,0,0,1,12.388,0)">
            <rect x="166.952" y="990.954" width="515.981" height="96.622" style="fill:none;"/>
            <g transform="matrix(1,0,0,1,86.0062,925.993)">
                <g transform="matrix(0.879018,0,0,0.879018,-349.774,-142.487)">
                    <g transform="matrix(1,0,0,1,399.012,176.562)">
                        <ellipse cx="117.235" cy="166.427" rx="23.737" ry="2.93" style="fill:rgb(26,9,55);fill-opacity:0.1;"/>
                    </g>
                    <g transform="matrix(1,0,0,1,-138,0)">
                        <path d="M663,344L662,344C659.239,344 657,341.761 657,339C657,335.999 657,329.026 657,325.862C657,322.549 659.686,319.862 663,319.862C663,319.862 663,319.862 663,319.862C666.314,319.862 669,322.549 669,325.862C669,325.862 669,336.062 669,338.487C669,338.77 669.208,339.009 669.488,339.049C670.104,339.142 670.675,339.433 671.121,339.879C671.684,340.441 672,341.204 672,342C672,342.171 672,342.339 672,342.5C672,342.898 671.842,343.279 671.561,343.561C671.279,343.842 670.898,344 670.5,344L669,344L668.719,344L663,344L663,344Z" style="fill:rgb(220,206,7);"/>
                        <clipPath id="_clip1">
                            <path d="M663,344L662,344C659.239,344 657,341.761 657,339C657,335.999 657,329.026 657,325.862C657,322.549 659.686,319.862 663,319.862C663,319.862 663,319.862 663,319.862C666.314,319.862 669,322.549 669,325.862C669,325.862 669,336.062 669,338.487C669,338.77 669.208,339.009 669.488,339.049C670.104,339.142 670.675,339.433 671.121,339.879C671.684,340.441 672,341.204 672,342C672,342.171 672,342.339 672,342.5C672,342.898 671.842,343.279 671.561,343.561C671.279,343.842 670.898,344 670.5,344L669,344L668.719,344L663,344L663,344Z"/>
                        </clipPath>
                        <g clip-path="url(#_clip1)">
                            <g transform="matrix(1,0,0,1,-1,0)">
                                <path d="M671,339L667,339C667,339 667.054,338 671,338L671,339Z" style="fill:rgb(26,9,55);fill-opacity:0.1;"/>
                            </g>
                            <g transform="matrix(1,0,0,1,-21.8624,-1.86237)">
                                <path d="M678.582,329.391C676.929,323.146 680.502,319.274 692,319C692.052,322.784 690.4,324.938 686.782,325.031C685.781,325.057 683.978,324.993 683.978,324.993C683.999,327.734 681.383,329.474 678.582,329.391Z" style="fill:rgb(26,9,55);fill-opacity:0.2;"/>
                            </g>
                        </g>
                    </g>
                    <g transform="matrix(1,0,0,1,-171.307,-3)">
                        <path d="M714,297L714,295.5C714,295.102 714.158,294.721 714.439,294.439C714.721,294.158 715.102,294 715.5,294C715.898,294 716.279,294.158 716.561,294.439C716.842,294.721 717,295.102 717,295.5L717,297L717.5,297C720.538,297 723,299.462 723,302.5C723,302.5 723,302.5 723,302.5C723,305.538 720.538,308 717.5,308C712.583,308 705.417,308 700.5,308C697.462,308 695,305.538 695,302.5C695,302.5 695,302.5 695,302.5C695,299.462 697.462,297 700.5,297L714,297Z" style="fill:rgb(220,206,7);"/>
                        <clipPath id="_clip2">
                            <path d="M714,297L714,295.5C714,295.102 714.158,294.721 714.439,294.439C714.721,294.158 715.102,294 715.5,294C715.898,294 716.279,294.158 716.561,294.439C716.842,294.721 717,295.102 717,295.5L717,297L717.5,297C720.538,297 723,299.462 723,302.5C723,302.5 723,302.5 723,302.5C723,305.538 720.538,308 717.5,308C712.583,308 705.417,308 700.5,308C697.462,308 695,305.538 695,302.5C695,302.5 695,302.5 695,302.5C695,299.462 697.462,297 700.5,297L714,297Z"/>
                        </clipPath>
                        <g clip-path="url(#_clip2)">
                            <g transform="matrix(6.12323e-17,-1,1,6.12323e-17,400,949.707)">
                                <path d="M639,307C639,307 644.036,304.44 647,306C649.964,307.56 651.459,308.052 653.707,307L653.707,308C653.707,308 653.055,310.329 650,309C647.243,307.8 644.152,304.176 639,309L639,307Z" style="fill:rgb(26,9,55);"/>
                            </g>
                            <g transform="matrix(1,0,0,0.883721,11.307,35.2558)">
                                <path d="M692,310.684C685.296,310.741 681.357,288.042 686.728,291.272C690.706,293.664 692,299.226 692,304C692,310.916 692,310.684 692,310.684Z" style="fill:rgb(26,9,55);fill-opacity:0.2;"/>
                            </g>
                            <g transform="matrix(1,0,0,1,12.307,3)">
                                <path d="M705.236,295.34C705.295,295.264 705.4,295.242 705.484,295.288C705.568,295.333 705.608,295.432 705.577,295.523C705.21,296.711 705,298.064 705,299.5C705,300.936 705.21,302.289 705.58,303.476C705.614,303.569 705.575,303.673 705.488,303.72C705.4,303.766 705.292,303.742 705.233,303.662C704.465,302.533 704,301.082 704,299.5C704,297.918 704.465,296.467 705.236,295.34Z" style="fill:rgb(26,9,55);fill-opacity:0.2;"/>
                            </g>
                        </g>
                    </g>
                    <g transform="matrix(1,0,0,1,-161,-3)">
                        <path d="M678.582,329.391C677.478,329.358 665.635,329.531 662.858,328.329C658.804,326.573 655,323.694 655,319.275C655,314.094 655,304.953 655,299C655,291.82 660.82,286 668,286C669.943,286 671.976,286 674,286C678.774,286 683.352,287.896 686.728,291.272C690.104,294.648 692,299.226 692,304C692,310.916 691.946,315.086 692,319C692.052,322.784 690.4,324.938 686.782,325.031C685.781,325.057 683.978,324.993 683.978,324.993C683.999,327.734 681.383,329.474 678.582,329.391Z" style="fill:rgb(220,206,7);"/>
                        <clipPath id="_clip3">
                            <path d="M678.582,329.391C677.478,329.358 665.635,329.531 662.858,328.329C658.804,326.573 655,323.694 655,319.275C655,314.094 655,304.953 655,299C655,291.82 660.82,286 668,286C669.943,286 671.976,286 674,286C678.774,286 683.352,287.896 686.728,291.272C690.104,294.648 692,299.226 692,304C692,310.916 691.946,315.086 692,319C692.052,322.784 690.4,324.938 686.782,325.031C685.781,325.057 683.978,324.993 683.978,324.993C683.999,327.734 681.383,329.474 678.582,329.391Z"/>
                        </clipPath>
                        <g clip-path="url(#_clip3)">
                            <g transform="matrix(0.694782,0,0,0.737705,207.171,80.8525)">
                                <path d="M663.999,285.224C653.96,280.515 646,271.314 646,259.5C646,243.219 703.041,279.228 700.077,289.4C699.455,291.532 697.501,292.997 695.28,292.997C690.151,293 680.855,293 674.806,293C671.963,293 669.333,291.49 667.899,289.035C667.194,287.776 665.991,286.415 664,285.225L663.999,285.224Z" style="fill:rgb(26,9,55);fill-opacity:0.2;"/>
                            </g>
                            <g transform="matrix(1.13763,0,0,1.13763,558.914,165.098)">
                                <path d="M86.986,142.373C86.702,142.414 86.424,142.435 86.159,142.435C86.159,142.435 86.159,142.435 86.159,142.435C83.489,142.435 81.324,139.271 81.324,136.601C81.324,132.13 81.324,124.543 81.324,120.218C81.324,119.052 81.787,117.934 82.612,117.11C83.436,116.286 84.554,115.823 85.719,115.823C86.012,115.823 87.306,115.823 87.598,115.823C88.764,115.823 89.87,116.298 90.706,117.11C91.953,118.32 91.993,120.052 91.993,121.218L91.993,135.176C92.096,134.927 93.446,136.542 93.494,137.222C93.508,137.417 93.514,137.595 93.512,137.758C93.75,137.767 93.996,137.781 94.252,137.798C94.252,137.798 94.252,137.798 94.252,137.798C97.164,137.798 99.526,140.16 99.526,143.072C99.526,143.072 99.526,151.931 99.526,154.049C99.526,154.297 99.709,154.508 99.955,154.543C100.496,154.624 100.998,154.88 101.39,155.272C101.885,155.767 102.163,156.437 102.163,157.137C102.163,157.287 102.163,157.435 102.163,157.576C102.163,157.926 102.024,158.261 101.777,158.509C101.529,158.756 101.194,158.895 100.844,158.895L99.526,158.895L99.279,158.895L94.252,158.895C94.252,158.895 91.373,158.895 91.373,158.895C88.945,158.895 86.978,156.927 86.978,154.5C86.978,151.862 86.978,145.853 86.978,143.072C86.978,142.838 86.979,142.604 86.986,142.373Z" style="fill:rgb(26,9,55);fill-opacity:0.2;"/>
                            </g>
                        </g>
                    </g>
                    <g transform="matrix(1.33333,0,0,1,-382.667,2)">
                        <path d="M680,281L668,281C668,281 668,284.212 668,287.312C668,288.82 668.449,290.267 669.25,291.334C670.05,292.401 671.135,293 672.266,293C673.392,293 674.608,293 675.734,293C676.865,293 677.95,292.401 678.75,291.334C679.551,290.267 680,288.82 680,287.312C680,284.212 680,281 680,281Z" style="fill:rgb(26,9,55);"/>
                    </g>
                    <g transform="matrix(0.918033,0,0,0.918033,-102.212,23.0164)">
                        <path d="M663.999,285.224C653.96,280.515 646,271.314 646,259.5C646,243.219 659.219,232 675.5,232C691.718,232 704.897,243.115 704.999,259.309L705,259.5C705.187,269.318 703.041,279.228 700.077,289.4C699.455,291.532 697.501,292.997 695.28,292.997C690.151,293 680.855,293 674.806,293C671.963,293 669.333,291.49 667.899,289.035C667.194,287.776 665.991,286.415 664,285.225L663.999,285.224Z" style="fill:rgb(220,206,7);"/>
                        <clipPath id="_clip4">
                            <path d="M663.999,285.224C653.96,280.515 646,271.314 646,259.5C646,243.219 659.219,232 675.5,232C691.718,232 704.897,243.115 704.999,259.309L705,259.5C705.187,269.318 703.041,279.228 700.077,289.4C699.455,291.532 697.501,292.997 695.28,292.997C690.151,293 680.855,293 674.806,293C671.963,293 669.333,291.49 667.899,289.035C667.194,287.776 665.991,286.415 664,285.225L663.999,285.224Z"/>
                        </clipPath>
                        <g clip-path="url(#_clip4)">
                            <g transform="matrix(0.492191,0,0,0.492191,339.002,141.486)">
                                <path d="M652.493,270.953C651.802,270.855 651.622,269.868 651.813,269.197C652.004,268.526 652.618,268.063 653.316,268.063C654.103,268 657.145,268 658,268C662.509,268 666.833,269.791 670.021,272.979C673.209,276.167 675,282.704 675,287.213C675,287.213 675,287.215 675,287.218C674.999,287.969 674.458,288.61 673.718,288.739C672.978,288.868 672.204,288.463 671.998,287.74C669.326,278.367 663.087,272.461 652.493,270.953Z" style="fill:rgb(26,9,55);fill-opacity:0.1;"/>
                            </g>
                            <g transform="matrix(1.24018,-0.108276,0.121811,1.3952,-197.618,-36.8521)">
                                <circle cx="658.45" cy="268" r="7" style="fill:rgb(26,9,55);"/>
                                <clipPath id="_clip5">
                                    <circle cx="658.45" cy="268" r="7"/>
                                </clipPath>
                                <g clip-path="url(#_clip5)">
                                    <path d="M658.45,268L658.45,276L650.524,276L650.524,268L658.45,268ZM666.376,260L666.376,268L658.45,268L658.45,260L666.376,260Z" style="fill:white;"/>
                                </g>
                            </g>
                        </g>
                    </g>
                    <g transform="matrix(1.07143,0,0,2,-209.714,-283)">
                        <rect x="682" y="282" width="14" height="1" style="fill:rgb(26,9,55);"/>
                    </g>
                    <g transform="matrix(1.56425,0,0,1.56425,-539.866,-153.218)">
                        <circle cx="675" cy="268" r="4" style="fill:rgb(26,9,55);fill-opacity:0.1;"/>
                    </g>
                    <g transform="matrix(1.25,0,0,1.25,-327.75,-69)">
                        <circle cx="675" cy="268" r="4" style="fill:white;"/>
                    </g>
                    <g transform="matrix(0.25,0,0,0.25,347.25,199)">
                        <circle cx="675" cy="268" r="4" style="fill:rgb(26,9,55);"/>
                    </g>
                    <g transform="matrix(1.56425,0,0,1.56425,-517.866,-153.218)">
                        <circle cx="675" cy="268" r="4" style="fill:rgb(26,9,55);fill-opacity:0.1;"/>
                    </g>
                    <g transform="matrix(1.25,0,0,1.25,-305.75,-69)">
                        <circle cx="675" cy="268" r="4" style="fill:white;"/>
                    </g>
                    <g transform="matrix(0.25,0,0,0.25,369.25,199)">
                        <circle cx="675" cy="268" r="4" style="fill:rgb(26,9,55);"/>
                    </g>
                    <g transform="matrix(1,0,0,1,-151,1)">
                        <path d="M651.595,318.576C650.775,320.585 648.803,322 646.5,322C646.5,322 646.5,322 646.5,322C643.462,322 641,319.538 641,316.5C641,311.414 641,303.92 641,299C641,297.674 641.527,296.402 642.464,295.464C643.402,294.527 644.674,294 646,294C646.333,294 646.667,294 647,294C648.326,294 649.598,294.527 650.536,295.464C651.473,296.402 652,297.674 652,299L652,314.879L653.268,316.146C653.549,316.428 653.707,316.809 653.707,317.207C653.707,317.605 653.549,317.986 653.268,318.268C652.986,318.549 652.605,318.707 652.207,318.707C651.994,318.707 651.785,318.662 651.595,318.576Z" style="fill:rgb(220,206,7);"/>
                        <clipPath id="_clip6">
                            <path d="M651.595,318.576C650.775,320.585 648.803,322 646.5,322C646.5,322 646.5,322 646.5,322C643.462,322 641,319.538 641,316.5C641,311.414 641,303.92 641,299C641,297.674 641.527,296.402 642.464,295.464C643.402,294.527 644.674,294 646,294C646.333,294 646.667,294 647,294C648.326,294 649.598,294.527 650.536,295.464C651.473,296.402 652,297.674 652,299L652,314.879L653.268,316.146C653.549,316.428 653.707,316.809 653.707,317.207C653.707,317.605 653.549,317.986 653.268,318.268C652.986,318.549 652.605,318.707 652.207,318.707C651.994,318.707 651.785,318.662 651.595,318.576Z"/>
                        </clipPath>
                        <g clip-path="url(#_clip6)">
                            <path d="M639,307C639,307 644.036,304.44 647,306C649.964,307.56 651.459,308.052 653.707,307L653.707,308C653.707,308 653.055,310.329 650,309C647.243,307.8 644.152,304.176 639,309L639,307Z" style="fill:rgb(26,9,55);"/>
                        </g>
                    </g>
                    <g transform="matrix(1,0,0,1,-160,0)">
                        <path d="M677.5,304C677.776,304 678,303.776 678,303.5C678,303.5 677.963,303.661 678,303.5C678.078,303.16 678.445,303 679,303C679.555,303 679.445,303 680,303C680.788,303 680.819,303.27 681,303.5C681,303.633 681.053,303.76 681.146,303.854C681.24,303.947 681.367,304 681.5,304C682.766,304 686,304 686,304C686.265,304 686.52,304.105 686.707,304.293C686.895,304.48 687,304.735 687,305C687,305.265 686.895,305.52 686.707,305.707C686.52,305.895 686.265,306 686,306C682.849,306 673.151,306 670,306C669.735,306 669.48,305.895 669.293,305.707C669.105,305.52 669,305.265 669,305C669,304.735 669.105,304.48 669.293,304.293C669.48,304.105 669.735,304 670,304C670,304 675.749,304 677.5,304Z" style="fill:rgb(26,9,55);fill-opacity:0.1;"/>
                    </g>
                    <g transform="matrix(1,0,0,1,-159,0)">
                        <path d="M663,344L662,344C659.239,344 657,341.761 657,339C657,335.999 657,329.164 657,326C657,322.686 659.686,320 663,320C663,320 663,320 663,320C666.314,320 669,322.686 669,326C669,326 669,336.077 669,338.487C669,338.77 669.208,339.009 669.488,339.049C670.104,339.142 670.675,339.433 671.121,339.879C671.684,340.441 672,341.204 672,342C672,342.171 672,342.339 672,342.5C672,342.898 671.842,343.279 671.561,343.561C671.279,343.842 670.898,344 670.5,344L669,344L668.719,344L663,344L663,344Z" style="fill:rgb(220,206,7);"/>
                        <clipPath id="_clip7">
                            <path d="M663,344L662,344C659.239,344 657,341.761 657,339C657,335.999 657,329.164 657,326C657,322.686 659.686,320 663,320C663,320 663,320 663,320C666.314,320 669,322.686 669,326C669,326 669,336.077 669,338.487C669,338.77 669.208,339.009 669.488,339.049C670.104,339.142 670.675,339.433 671.121,339.879C671.684,340.441 672,341.204 672,342C672,342.171 672,342.339 672,342.5C672,342.898 671.842,343.279 671.561,343.561C671.279,343.842 670.898,344 670.5,344L669,344L668.719,344L663,344L663,344Z"/>
                        </clipPath>
                        <g clip-path="url(#_clip7)">
                            <g transform="matrix(1,0,0,1,-1,0)">
                                <path d="M671,339L667,339C667,339 667.054,338 671,338L671,339Z" style="fill:rgb(26,9,55);fill-opacity:0.1;"/>
                            </g>
                        </g>
                    </g>
                </g>
                <g transform="matrix(1.22658,0,0,1.22658,-38.3018,-20.9627)">
                    <g>
                        <path d="M183.151,142.263L174.683,142.263L186.646,88.954L195.114,88.954L183.151,142.263ZM168.126,142.263L159.658,142.263L171.621,88.954L180.089,88.954L168.126,142.263ZM324.867,133.915C322.686,133.482 320.585,132.785 318.565,131.822L318.565,124.028C322.638,126.177 327.113,127.252 331.988,127.252C333.881,127.252 335.268,126.931 336.15,126.29C337.032,125.648 337.473,124.798 337.473,123.74C337.473,122.681 337.08,121.887 336.294,121.358C335.508,120.829 334.105,120.291 332.084,119.746L328.813,118.832C326.888,118.287 325.22,117.653 323.809,116.932C322.398,116.21 321.195,115.127 320.201,113.684C319.206,112.241 318.709,110.38 318.709,108.103C318.709,104.35 319.856,101.495 322.149,99.539C324.442,97.582 327.674,96.604 331.844,96.604C334.346,96.604 336.543,96.829 338.435,97.278C340.328,97.727 342.268,98.416 344.257,99.346L344.257,106.852C340.6,104.895 336.463,103.917 331.844,103.917C330.144,103.917 328.957,104.206 328.283,104.783C327.61,105.36 327.273,106.194 327.273,107.285C327.273,108.023 327.433,108.608 327.754,109.041C328.075,109.474 328.572,109.835 329.246,110.124C329.919,110.412 330.93,110.749 332.277,111.134L335.597,112.048C337.649,112.626 339.414,113.299 340.889,114.069C342.364,114.839 343.591,115.977 344.57,117.485C345.548,118.992 346.037,120.933 346.037,123.307C346.005,126.803 344.746,129.553 342.26,131.558C339.774,133.563 336.35,134.565 331.988,134.565C329.422,134.565 327.049,134.348 324.867,133.915ZM218.236,134.18L207.266,134.18L198.317,97.278L206.737,97.278L212.847,124.124L219.679,97.278L229.783,97.278L236.663,124.124L242.725,97.278L251.145,97.278L242.244,134.18L231.274,134.18L224.731,109.402L218.236,134.18ZM270.651,133.747L255.399,133.747L255.399,97.278L270.651,97.278C275.334,97.278 278.662,98.112 280.634,99.779C282.607,101.447 283.593,103.869 283.593,107.044C283.593,109.033 283.192,110.701 282.391,112.048C281.589,113.395 280.29,114.454 278.493,115.224C280.546,115.897 282.15,116.94 283.305,118.351C284.459,119.762 285.037,121.494 285.037,123.547C285.037,126.979 283.93,129.537 281.717,131.221C279.504,132.905 275.815,133.747 270.651,133.747ZM305.987,133.747L297.326,133.747L297.326,104.687L287.367,104.687L287.367,97.278L315.946,97.278L315.946,104.687L305.987,104.687L305.987,133.747ZM366.698,133.747L358.038,133.747L358.038,104.687L348.079,104.687L348.079,97.278L376.657,97.278L376.657,104.687L366.698,104.687L366.698,133.747ZM389.091,133.747L380.431,133.747L380.431,97.278L395.202,97.278C404.471,97.278 409.106,101.175 409.106,108.969C409.106,114.518 406.684,118.078 401.841,119.65L410.55,133.747L400.927,133.747L393.133,120.564L389.091,120.564L389.091,133.747ZM421.492,133.747L412.639,133.747L412.639,125.039L421.492,125.039L421.492,133.747ZM434.407,133.747L425.747,133.747L425.747,97.278L435.706,97.278L448.793,119.698L448.793,97.278L457.453,97.278L457.453,133.747L447.493,133.747L434.407,111.326L434.407,133.747ZM486.496,133.747L462.151,133.747L462.151,97.278L486.255,97.278L486.255,104.206L470.811,104.206L470.811,111.952L483.85,111.952L483.85,118.88L470.811,118.88L470.811,126.819L486.496,126.819L486.496,133.747ZM517.886,104.687L507.927,104.687L507.927,133.747L499.266,133.747L499.266,104.687L489.307,104.687L489.307,97.278L517.886,97.278L517.886,104.687Z" style="fill:rgb(26,9,55);"/>
                    </g>
                </g>
            </g>
        </g>
    </g>
</svg>
