<?xml version="1.0" encoding="UTF-8" standalone="no"?>
<svg
   xmlns:dc="http://purl.org/dc/elements/1.1/"
   xmlns:cc="http://creativecommons.org/ns#"
   xmlns:rdf="http://www.w3.org/1999/02/22-rdf-syntax-ns#"
   xmlns:svg="http://www.w3.org/2000/svg"
   xmlns="http://www.w3.org/2000/svg"
   xmlns:sodipodi="http://sodipodi.sourceforge.net/DTD/sodipodi-0.dtd"
   xmlns:inkscape="http://www.inkscape.org/namespaces/inkscape"
   viewBox="0 0 517 98"
   fill-rule="evenodd"
   clip-rule="evenodd"
   stroke-linejoin="round"
   stroke-miterlimit="1.414"
   version="1.1"
   id="svg4559"
   sodipodi:docname="logo-line-dark.svg"
   inkscape:version="0.92.2 (5c3e80d, 2017-08-06)">
  <metadata
     id="metadata4565">
    <rdf:RDF>
      <cc:Work
         rdf:about="">
        <dc:format>image/svg+xml</dc:format>
        <dc:type
           rdf:resource="http://purl.org/dc/dcmitype/StillImage" />
      </cc:Work>
    </rdf:RDF>
  </metadata>
  <defs
     id="defs4563" />
  <sodipodi:namedview
     pagecolor="#ffffff"
     bordercolor="#666666"
     borderopacity="1"
     objecttolerance="10"
     gridtolerance="10"
     guidetolerance="10"
     inkscape:pageopacity="0"
     inkscape:pageshadow="2"
     inkscape:window-width="2560"
     inkscape:window-height="1377"
     id="namedview4561"
     showgrid="false"
     inkscape:zoom="1.5537201"
     inkscape:cx="426.92075"
     inkscape:cy="22.784364"
     inkscape:window-x="1912"
     inkscape:window-y="-8"
     inkscape:window-maximized="1"
     inkscape:current-layer="svg4559" />
  <path
     fill="none"
     d="M.34.954h515.981v96.622H.34z"
     id="path4452" />
  <ellipse
     cx="117.235"
     cy="166.427"
     rx="23.737"
     ry="2.93"
     fill="#1a0937"
     fill-opacity=".1"
     transform="matrix(.87902 0 0 .87902 -79.641 -51.293)"
     id="ellipse4454" />
  <g
     transform="matrix(.87902 0 0 .87902 -551.684 -206.494)"
     id="g4467">
    <path
       d="M663 344h-1a5 5 0 0 1-5-5v-13.138a6 6 0 0 1 12 0v12.625c0 .283.208.522.488.562a2.929 2.929 0 0 1 1.633.83c.563.562.879 1.325.879 2.121v.5a1.503 1.503 0 0 1-1.5 1.5H663z"
       fill="#dcce07"
       id="path4456" />
    <clipPath
       id="a">
      <path
         d="M663 344h-1a5 5 0 0 1-5-5v-13.138a6 6 0 0 1 12 0v12.625c0 .283.208.522.488.562a2.929 2.929 0 0 1 1.633.83c.563.562.879 1.325.879 2.121v.5a1.503 1.503 0 0 1-1.5 1.5H663z"
         id="path4458" />
    </clipPath>
    <g
       clip-path="url(#a)"
       id="g4465">
      <path
         d="M670 339h-4s.054-1 4-1v1z"
         fill="#1a0937"
         fill-opacity=".1"
         id="path4461" />
      <path
         d="M656.72 327.529c-1.653-6.245 1.92-10.117 13.418-10.391.052 3.784-1.6 5.938-5.218 6.03-1.001.027-2.804-.037-2.804-.037.02 2.74-2.595 4.48-5.396 4.398z"
         fill="#1a0937"
         fill-opacity=".2"
         id="path4463" />
    </g>
  </g>
  <g
     transform="matrix(.87902 0 0 .87902 -580.962 -209.131)"
     id="g4480">
    <path
       d="M714 297v-1.5a1.503 1.503 0 0 1 1.5-1.5 1.503 1.503 0 0 1 1.5 1.5v1.5h.5a5.5 5.5 0 1 1 0 11h-17a5.5 5.5 0 1 1 0-11H714z"
       fill="#dcce07"
       id="path4469" />
    <clipPath
       id="b">
      <path
         d="M714 297v-1.5a1.503 1.503 0 0 1 1.5-1.5 1.503 1.503 0 0 1 1.5 1.5v1.5h.5a5.5 5.5 0 1 1 0 11h-17a5.5 5.5 0 1 1 0-11H714z"
         id="path4471" />
    </clipPath>
    <g
       clip-path="url(#b)"
       id="g4478">
      <path
         d="M707 310.707s-2.56-5.036-1-8c1.56-2.964 2.052-4.459 1-6.707h1s2.329.652 1 3.707c-1.2 2.757-4.824 5.848 0 11h-2z"
         fill="#1a0937"
         id="path4474" />
      <path
         d="M703.307 309.814c-6.704.05-10.643-20.01-5.272-17.155 3.978 2.114 5.272 7.03 5.272 11.248v5.907zM717.543 298.34a.195.195 0 0 1 .248-.052.195.195 0 0 1 .093.235 13.556 13.556 0 0 0-.577 3.977c0 1.436.21 2.789.58 3.976a.2.2 0 0 1-.092.244.2.2 0 0 1-.255-.058c-.768-1.129-1.233-2.58-1.233-4.162 0-1.582.465-3.033 1.236-4.16z"
         fill="#1a0937"
         fill-opacity=".2"
         id="path4476" />
    </g>
  </g>
  <g
     transform="matrix(.87902 0 0 .87902 -571.902 -209.131)"
     id="g4491">
    <path
       d="M678.582 329.391c-1.104-.033-12.947.14-15.724-1.062-4.054-1.756-7.858-4.635-7.858-9.054V299c0-7.18 5.82-13 13-13h6a18 18 0 0 1 18 18c0 6.916-.054 11.086 0 15 .052 3.784-1.6 5.938-5.218 6.031-1.001.026-2.804-.038-2.804-.038.021 2.741-2.595 4.481-5.396 4.398z"
       fill="#dcce07"
       id="path4482" />
    <clipPath
       id="c">
      <path
         d="M678.582 329.391c-1.104-.033-12.947.14-15.724-1.062-4.054-1.756-7.858-4.635-7.858-9.054V299c0-7.18 5.82-13 13-13h6a18 18 0 0 1 18 18c0 6.916-.054 11.086 0 15 .052 3.784-1.6 5.938-5.218 6.031-1.001.026-2.804-.038-2.804-.038.021 2.741-2.595 4.481-5.396 4.398z"
         id="path4484" />
    </clipPath>
    <g
       clip-path="url(#c)"
       id="g4489">
      <path
         d="M668.506 291.264C661.53 287.79 656 281.002 656 272.287c0-12.01 39.631 14.553 37.572 22.057-.432 1.573-1.79 2.654-3.333 2.654-3.564.002-10.022.002-14.225.002-1.975 0-3.802-1.114-4.799-2.925-.49-.929-1.325-1.933-2.709-2.81v-.001zM657.872 327.066c-.323.046-.64.07-.94.07-3.038 0-5.501-3.6-5.501-6.637v-18.637a5 5 0 0 1 5-5h2.137c1.327 0 2.585.54 3.536 1.464 1.418 1.376 1.464 3.347 1.464 4.673v15.88c.117-.284 1.653 1.553 1.708 2.327a7.3 7.3 0 0 1 .02.61c.27.01.55.026.842.045 3.313 0 6 2.687 6 6v12.488c0 .282.208.522.488.562a2.923 2.923 0 0 1 1.632.83c.563.562.88 1.324.88 2.12v.5a1.504 1.504 0 0 1-1.5 1.5H666.136h-3.274a5 5 0 0 1-5-5v-13c0-.266 0-.532.009-.795z"
         fill="#1a0937"
         fill-opacity=".2"
         id="path4487" />
    </g>
  </g>
  <path
     d="M30.223 42.268H16.16v5.548a4.997 4.997 0 0 0 5 5h4.065a4.998 4.998 0 0 0 5-5v-5.548z"
     fill="#1a0937"
     id="path4493" />
  <g
     transform="matrix(.80697 0 0 .80697 -520.226 -186.262)"
     id="g4515">
    <path
       d="M663.999 285.224C653.96 280.515 646 271.314 646 259.5c0-16.281 13.219-27.5 29.5-27.5 16.218 0 29.397 11.115 29.499 27.309l.001.191c.187 9.818-1.959 19.728-4.923 29.9a4.996 4.996 0 0 1-4.797 3.597c-5.129.003-14.425.003-20.474.003a8 8 0 0 1-6.907-3.965c-.705-1.259-1.908-2.62-3.899-3.81l-.001-.001z"
       fill="#dcce07"
       id="path4495" />
    <clipPath
       id="d">
      <path
         d="M663.999 285.224C653.96 280.515 646 271.314 646 259.5c0-16.281 13.219-27.5 29.5-27.5 16.218 0 29.397 11.115 29.499 27.309l.001.191c.187 9.818-1.959 19.728-4.923 29.9a4.996 4.996 0 0 1-4.797 3.597c-5.129.003-14.425.003-20.474.003a8 8 0 0 1-6.907-3.965c-.705-1.259-1.908-2.62-3.899-3.81l-.001-.001z"
         id="path4497" />
    </clipPath>
    <g
       clip-path="url(#d)"
       id="g4513">
      <path
         d="M660.153 274.847c-.34-.049-.429-.534-.335-.865a.77.77 0 0 1 .74-.558c.388-.03 1.885-.03 2.306-.03 2.219 0 4.347.88 5.916 2.45 1.57 1.569 2.45 4.786 2.45 7.006v.002c0 .37-.266.685-.63.749-.364.063-.745-.136-.847-.492-1.315-4.613-4.386-7.52-9.6-8.262z"
         fill="#1a0937"
         fill-opacity=".1"
         id="path4500" />
      <g
         transform="matrix(1.24018 -.10828 .12181 1.3952 -197.618 -36.852)"
         id="g4511">
        <circle
           cx="658.45"
           cy="268"
           r="7"
           fill="#1a0937"
           id="circle4502" />
        <clipPath
           id="e">
          <circle
             cx="658.45"
             cy="268"
             r="7"
             id="circle4504" />
        </clipPath>
        <g
           clip-path="url(#e)"
           id="g4509">
          <path
             d="M658.45 268v8h-7.926v-8h7.926zm7.926-8v8h-7.926v-8h7.926z"
             fill="#fff"
             id="path4507" />
        </g>
      </g>
    </g>
  </g>
  <path
     fill="#1a0937"
     d="M27.59 40.51h13.185v1.758H27.59z"
     id="path4517" />
  <circle
     cx="675"
     cy="268"
     r="4"
     fill="#1a0937"
     fill-opacity=".1"
     transform="matrix(1.375 0 0 1.375 -904.932 -341.175)"
     id="circle4519" />
  <circle
     cx="675"
     cy="268"
     r="4"
     fill="#fff"
     transform="matrix(1.09877 0 0 1.09877 -718.478 -267.146)"
     id="circle4521" />
  <circle
     cx="675"
     cy="268"
     r="4"
     fill="#1a0937"
     transform="matrix(.21975 0 0 .21975 -125.14 -31.57)"
     id="circle4523" />
  <circle
     cx="675"
     cy="268"
     r="4"
     fill="#1a0937"
     fill-opacity=".1"
     transform="matrix(1.375 0 0 1.375 -885.593 -341.175)"
     id="circle4525" />
  <circle
     cx="675"
     cy="268"
     r="4"
     fill="#fff"
     transform="matrix(1.09877 0 0 1.09877 -699.14 -267.146)"
     id="circle4527" />
  <circle
     cx="675"
     cy="268"
     r="4"
     fill="#1a0937"
     transform="matrix(.21975 0 0 .21975 -105.802 -31.57)"
     id="circle4529" />
  <g
     transform="matrix(.87902 0 0 .87902 -563.112 -205.615)"
     id="g4540">
    <path
       d="M651.595 318.576A5.502 5.502 0 0 1 646.5 322a5.5 5.5 0 0 1-5.5-5.5V299c0-1.326.527-2.598 1.464-3.536A5.004 5.004 0 0 1 646 294h1c1.326 0 2.598.527 3.536 1.464A5.004 5.004 0 0 1 652 299v15.879l1.268 1.267a1.503 1.503 0 0 1 0 2.122 1.503 1.503 0 0 1-1.673.308z"
       fill="#dcce07"
       id="path4531" />
    <clipPath
       id="f">
      <path
         d="M651.595 318.576A5.502 5.502 0 0 1 646.5 322a5.5 5.5 0 0 1-5.5-5.5V299c0-1.326.527-2.598 1.464-3.536A5.004 5.004 0 0 1 646 294h1c1.326 0 2.598.527 3.536 1.464A5.004 5.004 0 0 1 652 299v15.879l1.268 1.267a1.503 1.503 0 0 1 0 2.122 1.503 1.503 0 0 1-1.673.308z"
         id="path4533" />
    </clipPath>
    <g
       clip-path="url(#f)"
       id="g4538">
      <path
         d="M639 307s5.036-2.56 8-1c2.964 1.56 4.459 2.052 6.707 1v1s-.652 2.329-3.707 1c-2.757-1.2-5.848-4.824-11 0v-2z"
         fill="#1a0937"
         id="path4536" />
    </g>
  </g>
  <path
     d="M24.512 60.727a.44.44 0 0 0 .44-.439s-.033.141 0 0c.068-.299.39-.44.879-.44h.879c.692 0 .72.238.879.44 0 .117.046.229.128.311a.443.443 0 0 0 .311.128h3.956a.877.877 0 0 1 .879.88.877.877 0 0 1-.88.879H17.92a.877.877 0 0 1-.879-.88.877.877 0 0 1 .88-.879h6.592z"
     fill="#1a0937"
     fill-opacity=".1"
     id="path4542" />
  <g
     transform="matrix(.87902 0 0 .87902 -570.144 -206.494)"
     id="g4553">
    <path
       d="M663 344h-1a5 5 0 0 1-5-5v-13a6 6 0 1 1 12 0v12.487c0 .283.208.522.488.562a2.929 2.929 0 0 1 1.633.83c.563.562.879 1.325.879 2.121v.5a1.503 1.503 0 0 1-1.5 1.5H663z"
       fill="#dcce07"
       id="path4544" />
    <clipPath
       id="g">
      <path
         d="M663 344h-1a5 5 0 0 1-5-5v-13a6 6 0 1 1 12 0v12.487c0 .283.208.522.488.562a2.929 2.929 0 0 1 1.633.83c.563.562.879 1.325.879 2.121v.5a1.503 1.503 0 0 1-1.5 1.5H663z"
         id="path4546" />
    </clipPath>
    <g
       clip-path="url(#g)"
       id="g4551">
      <path
         d="M670 339h-4s.054-1 4-1v1z"
         fill="#1a0937"
         fill-opacity=".1"
         id="path4549" />
    </g>
  </g>
  <g
     id="g4557">
    <path
       d="M 105.742,89.527 H 95.355 L 110.03,24.14 h 10.386 l -14.673,65.388 z m -18.43,0 H 76.926 L 91.599,24.14 h 10.387 z m 192.256,-10.24 c -2.67357,-0.529703 -5.27039,-1.391727 -7.73,-2.566 v -9.56 c 4.996,2.635 10.485,3.954 16.464,3.954 2.322,0 4.023,-0.394 5.105,-1.18 1.082,-0.787 1.623,-1.83 1.623,-3.128 0,-1.299 -0.482,-2.273 -1.446,-2.921 -0.964,-0.65 -2.685,-1.31 -5.164,-1.978 l -4.012,-1.12 c -2.361,-0.67 -4.407,-1.447 -6.138,-2.331 -1.73,-0.886 -3.206,-2.214 -4.425,-3.984 -1.22,-1.77 -1.83,-4.053 -1.83,-6.846 0,-4.603 1.406,-8.105 4.219,-10.504 2.812,-2.4 6.777,-3.6 11.892,-3.6 3.069,0 5.763,0.276 8.084,0.827 2.322,0.55 4.701,1.395 7.141,2.536 v 9.207 c -4.485,-2.4 -9.56,-3.6 -15.225,-3.6 -2.086,0 -3.542,0.354 -4.368,1.062 -0.826,0.708 -1.24,1.73 -1.24,3.069 0,0.905 0.197,1.623 0.59,2.154 0.395,0.53 1.004,0.974 1.831,1.328 0.825,0.353 2.066,0.767 3.718,1.239 l 4.072,1.121 c 2.517,0.71 4.682,1.535 6.491,2.48 1.81,0.944 3.314,2.34 4.515,4.19 1.2,1.848 1.8,4.228 1.8,7.14 -0.04,4.288 -1.584,7.661 -4.633,10.12 -3.05,2.46 -7.25,3.689 -12.6,3.689 -3.147,0 -6.058,-0.266 -8.734,-0.797 z M 148.776,79.613 H 135.321 L 124.344,34.35 h 10.328 l 7.494,32.928 8.38,-32.928 h 12.394 l 8.439,32.928 7.435,-32.928 h 10.328 l -10.918,45.263 h -13.456 l -8.025,-30.392 z m 64.292,-0.531 H 194.36 V 34.35 h 18.708 c 5.744,0 9.826,1.023 12.244,3.067 2.42,2.046 3.63,5.017 3.63,8.911 0,2.44 -0.492,4.486 -1.474,6.138 -0.984,1.652 -2.577,2.951 -4.782,3.896 2.519,0.825 4.486,2.105 5.903,3.835 1.415,1.731 2.124,3.855 2.124,6.374 0,4.21 -1.358,7.347 -4.072,9.412 -2.715,2.066 -7.24,3.099 -13.573,3.099 z m 43.342,0 H 245.787 V 43.437 H 233.57 V 34.35 h 35.054 v 9.087 H 256.41 Z m 74.467,0 H 320.255 V 43.437 H 308.039 V 34.35 h 35.053 v 9.087 h -12.215 z m 27.467,0 H 347.72 V 34.35 h 18.118 c 11.37,0 17.055,4.78 17.055,14.34 0,6.806 -2.971,11.172 -8.911,13.1 l 10.682,17.292 H 372.86 l -9.56,-16.17 h -4.957 v 16.17 z"
       id="path4555"
       inkscape:connector-curvature="0"
       style="fill:#1a0937"
       sodipodi:nodetypes="ccccccccccccccscscccccscscccsssccccccccsccccccccccccccccsccscscccscscccccccccccccccccccccssccccccc" />
  </g>
</svg>