<?xml version="1.0" standalone="no"?>
<!DOCTYPE svg PUBLIC "-//W3C//DTD SVG 20010904//EN"
 "http://www.w3.org/TR/2001/REC-SVG-20010904/DTD/svg10.dtd">
<svg version="1.0" xmlns="http://www.w3.org/2000/svg"
 width="700.000000pt" height="700.000000pt" viewBox="0 0 700.000000 700.000000"
 preserveAspectRatio="xMidYMid meet">
<metadata>
Created by potrace 1.11, written by Peter Selinger 2001-2013
</metadata>
<g transform="translate(0.000000,700.000000) scale(0.100000,-0.100000)"
fill="#000000" stroke="none">
<path d="M3365 6904 c-722 -74 -1266 -291 -1815 -723 -132 -104 -417 -393
-524 -531 -395 -511 -624 -1083 -686 -1715 -15 -142 -15 -488 0 -630 146
-1473 1239 -2663 2690 -2929 345 -63 835 -63 1180 0 1134 208 2092 1008 2493
2084 154 413 216 791 204 1250 -7 247 -20 369 -62 576 -236 1145 -1081 2093
-2190 2459 -202 67 -371 105 -615 141 -101 14 -583 27 -675 18z m595 -850
c880 -127 1614 -706 1943 -1534 93 -233 153 -510 164 -752 l6 -138 -1226 0
-1227 0 0 1226 0 1227 118 -7 c64 -4 164 -14 222 -22z m-350 -3664 l0 -1230
-47 0 c-27 0 -97 5 -158 10 -546 51 -1024 259 -1440 627 -337 299 -608 742
-724 1185 -51 194 -81 400 -81 558 l0 80 1225 0 1225 0 0 -1230z"/>
</g>
</svg>
