<svg version="1" xmlns="http://www.w3.org/2000/svg" width="933.333" height="933.333" viewBox="0 0 700.000000 700.000000"><path d="M336.5 9.6C264.3 17 209.9 38.7 155 81.9c-13.2 10.4-41.7 39.3-52.4 53.1C63.1 186.1 40.2 243.3 34 306.5c-1.5 14.2-1.5 48.8 0 63 14.6 147.3 123.9 266.3 269 292.9 34.5 6.3 83.5 6.3 118 0C534.4 641.6 630.2 561.6 670.3 454c15.4-41.3 21.6-79.1 20.4-125-.7-24.7-2-36.9-6.2-57.6-23.6-114.5-108.1-209.3-219-245.9-20.2-6.7-37.1-10.5-61.5-14.1-10.1-1.4-58.3-2.7-67.5-1.8zm59.5 85c88 12.7 161.4 70.6 194.3 153.4 9.3 23.3 15.3 51 16.4 75.2l.6 13.8H362V91.7l11.8.7c6.4.4 16.4 1.4 22.2 2.2zM361 461v123h-4.7c-2.7 0-9.7-.5-15.8-1-54.6-5.1-102.4-25.9-144-62.7-33.7-29.9-60.8-74.2-72.4-118.5-5.1-19.4-8.1-40-8.1-55.8v-8h245v123z"/></svg>